<svg width="268" height="104" viewBox="0 0 268 104" fill="none" xmlns="http://www.w3.org/2000/svg">
<path fill-rule="evenodd" clip-rule="evenodd" d="M55.7335 0.347544C54.5509 0.950913 53.5861 2.17445 53.1186 3.664C52.6005 5.3141 52.575 8.52201 53.062 10.808C54.84 19.1571 60.3514 26.313 67.8316 29.9845L69.4291 30.7686L69.3199 32.0873C69.0642 35.179 67.8422 39.6427 66.4072 42.728C64.4332 46.972 61.1961 50.6386 58.8501 51.2877C57.968 51.5319 57.5075 51.3455 57.2062 50.6226C56.0307 47.8038 59.1947 41.0317 64.473 35.067C65.1937 34.2527 65.7835 33.5503 65.7835 33.5065C65.7835 33.4624 64.9223 32.8764 63.8698 32.204C61.9632 30.9861 61.9545 30.9828 61.4818 31.294C61.221 31.4659 60.1153 32.0384 59.0249 32.5661C55.7781 34.1378 52.8717 35.003 50.8167 35.0095L49.8179 35.0126L49.6067 34.2451C49.2994 33.1283 48.791 32.4063 48.07 32.0635C46.1012 31.1273 44.1043 32.4722 44.4119 34.5272C44.5713 35.592 45.1584 36.4464 46.0819 36.9573L46.8223 37.3669L46.5529 38.5826C46.2126 40.1186 45.1276 42.704 44.0744 44.4892C41.9578 48.0767 39.1934 50.7033 36.9427 51.2655C35.2145 51.6971 34.4837 50.7724 34.6591 48.3767C34.9094 44.9569 37.3978 40.1975 41.7727 34.7703C42.8009 33.4947 43.6159 32.4269 43.5838 32.3971C43.0604 31.9147 39.8868 29.4165 39.7959 29.4156C39.6092 29.4134 36.9321 32.8657 35.5258 34.9223C33.8336 37.397 32.3573 39.999 31.442 42.1207C30.5848 44.1069 30.0661 44.7341 27.8453 46.4692C23.7109 49.6995 19.0165 52.0175 18.1193 51.2714C16.7822 50.1595 20.0941 43.4697 29.2172 28.8545C34.3446 20.6407 35.3248 18.6865 35.3248 16.6782C35.3248 13.9541 32.2067 13.451 28.4323 15.5659C24.2215 17.9256 19.146 23.1522 15.0632 29.3334C13.2601 32.063 13.006 32.7048 17.9259 22.1001C22.775 11.6483 22.8069 11.554 21.9392 10.2527C20.8588 8.63199 18.6575 8.64644 17.4497 10.2823C16.9393 10.9734 15.2365 15.0211 11.1868 25.1702C7.26105 35.0081 0 53.6257 0 53.8534C0 53.9264 1.02045 53.9632 2.26763 53.9354L4.53527 53.8848L5.74533 51.1745C8.38514 45.2619 12.3258 38.0766 15.6165 33.176C19.664 27.1482 24.3608 22.0674 28.4395 19.3041C29.0637 18.8811 29.6047 18.5655 29.6417 18.6025C29.6786 18.6395 28.4933 20.5388 27.0074 22.823C18.0295 36.6262 12.6681 46.6182 12.1534 50.5066C11.9358 52.1497 12.6526 53.6085 13.9901 54.2446C14.9175 54.6856 16.8905 54.652 18.6623 54.1649C21.6696 53.3382 25.1992 51.2763 28.2968 48.537L29.9666 47.0603L29.8448 47.8746C29.7777 48.3223 29.8104 49.2365 29.9171 49.906C30.4022 52.9493 32.2137 54.5843 35.0806 54.5666C38.1429 54.5474 41.4996 52.5905 44.3103 49.1854C47.0822 45.8272 48.6662 42.5185 49.6346 38.0636C49.7267 37.6401 49.8408 37.5821 50.7764 37.4841C52.2422 37.3304 54.798 36.5554 56.5458 35.7346C57.3641 35.3505 58.0336 35.063 58.0336 35.0961C58.0336 35.1289 57.4994 35.94 56.8465 36.8982C54.6446 40.1292 53.0705 43.8064 52.6068 46.8015C52.3319 48.5764 52.4734 50.7938 52.9263 51.81C54.9285 56.3028 61.3819 55.1862 65.8975 49.5657C68.1176 46.8024 69.8085 43.5629 71.1233 39.5539C71.757 37.6215 72.6321 33.6564 72.6321 32.7174C72.6321 32.4236 72.6738 32.1417 72.7246 32.0906C72.7754 32.0397 73.4444 32.1796 74.2115 32.4014C74.9784 32.6232 76.4371 32.95 77.4533 33.1274C78.4694 33.3049 79.3006 33.5036 79.3006 33.5689C79.3006 33.6341 77.468 38.1508 75.228 43.6057C72.9881 49.0606 71.1141 53.6253 71.0634 53.7494C70.9928 53.9231 71.5097 53.9751 73.3067 53.9751H75.642L78.0374 48.4637L80.433 42.9523L82.4352 40.9728C86.3319 37.1198 89.8618 34.7067 90.3776 35.543C90.57 35.8547 89.835 37.4259 87.9227 40.7917C83.8979 47.8755 83.0312 49.8404 83.009 51.9306C82.9964 53.1225 83.0373 53.271 83.5154 53.772C85.6989 56.0599 91.483 53.5668 96.0166 48.3835C96.8188 47.4667 97.1647 47.1696 97.0764 47.4737C96.3295 50.0446 96.0363 51.549 96.143 52.2616C96.3691 53.7739 97.4222 54.5639 99.2054 54.5592C101.302 54.5538 103.351 53.3795 105.796 50.7815C106.62 49.9058 107.235 49.3519 107.162 49.5505C106.852 50.397 106.826 52.2708 107.116 52.8341C107.804 54.1658 109.453 54.849 111.187 54.5196C112.445 54.2805 114.339 53.2816 115.908 52.0303C117.452 50.7979 120.23 47.9055 121.338 46.376C121.76 45.7936 122.145 45.3147 122.195 45.3116C122.245 45.3085 122.257 46.1736 122.223 47.2339C122.047 52.6553 124.16 55.1546 128.366 54.5034C130.311 54.2021 131.959 53.2464 133.925 51.2792C135.839 49.3634 137.172 47.4477 138.622 44.5258L139.579 42.5976H140.71C141.331 42.5976 141.84 42.6662 141.84 42.7502C141.84 42.834 140.915 45.3737 139.784 48.3938L137.729 53.8848L139.995 53.9356C141.523 53.9699 142.303 53.9206 142.387 53.7844C142.455 53.6735 143.434 51.1111 144.561 48.0901L146.611 42.5976H149.182C150.596 42.5976 151.753 42.6417 151.753 42.6957C151.753 42.7495 151.233 44.1108 150.598 45.7207C149.084 49.5581 148.656 50.9716 148.658 52.1332C148.659 53.2139 148.981 53.8406 149.727 54.2168C152.199 55.4643 156.29 53.6215 159.909 49.6293C161.085 48.3321 161.121 48.3079 160.99 48.9185C160.915 49.2661 160.857 50.16 160.86 50.905C160.867 52.4285 161.297 53.5112 162.106 54.0427C163.336 54.8501 165.774 54.7385 167.734 53.7851C169.896 52.7332 171.673 50.0945 172.41 46.8416C172.926 44.5665 172.824 41.2917 172.187 39.6276C172.076 39.3359 174.855 37.2148 176.894 36.035C178.341 35.1983 180.567 34.2084 180.701 34.3424C180.74 34.3818 180.196 35.6256 179.491 37.1063C176.652 43.0675 174.795 47.8291 174.281 50.4633C173.965 52.0834 174.483 53.5872 175.554 54.1619C176.251 54.5357 177.623 54.6686 179.08 54.5034C181.591 54.2189 183.578 53.6201 187.749 51.8916L188.511 51.5757L189.23 52.3178C191.148 54.2978 194.625 55.0565 198.983 54.445C200.129 54.2843 201.427 54.0468 201.867 53.9172L202.667 53.6817L202.605 52.6996C202.572 52.1596 202.52 51.6933 202.491 51.6635C202.463 51.6339 201.896 51.7041 201.233 51.8199C200.548 51.9394 199.038 51.9983 197.742 51.9564C195.735 51.8914 195.331 51.8235 194.407 51.3969C193.435 50.9482 192.304 49.9957 192.304 49.6264C192.304 49.5401 193.016 48.9894 193.887 48.4027C200.738 43.787 204.92 38.4011 204.92 34.1938C204.92 33.3338 204.826 32.9405 204.51 32.4702C203.617 31.1425 202.162 30.5785 200.045 30.739C194.291 31.175 189.601 35.6918 187.768 42.5619C187.488 43.6118 187.388 44.5919 187.36 46.5667L187.322 49.1816L185.268 50.1501C182.806 51.3112 180.285 52.1831 179.262 52.2273L178.516 52.2595L178.532 51.1759C178.551 49.8296 179.304 47.8903 182.505 40.9455C185.587 34.2594 185.782 33.6419 185.182 32.4783C184.546 31.2463 182.66 30.9875 180.387 31.8204C177.995 32.6965 173.777 35.4464 170.53 38.2469C168.754 39.7782 168.633 39.9868 168.882 41.085C168.991 41.5693 169.077 42.7782 169.073 43.7715C169.06 46.8633 168.005 50.0006 166.529 51.337C165.792 52.0043 164.888 52.2123 164.619 51.7766C164.389 51.4022 164.518 49.8541 164.895 48.476C165.782 45.2354 169.117 37.8536 171.378 34.1259C171.884 33.2907 172.299 32.5488 172.299 32.4774C172.299 32.2957 168.644 31.0491 168.455 31.1663C168.208 31.3191 164.723 38.4772 163.588 41.1628C162.39 43.9969 161.231 45.5847 158.389 48.2864C156.023 50.535 153.789 51.7767 153.494 51.0074C153.128 50.0513 155.416 44.2441 159.421 35.9607C160.442 33.8501 161.255 32.1231 161.228 32.1231C161.201 32.1231 160.259 31.9192 159.135 31.67C158.01 31.4208 157.029 31.279 156.953 31.3548C156.827 31.4807 153.05 39.7386 152.78 40.4756C152.678 40.7568 152.376 40.7917 150.046 40.7917C148.606 40.7917 147.426 40.7308 147.425 40.6562C147.424 40.5816 148.129 38.6256 148.992 36.3093C150.196 33.0786 150.507 32.0642 150.329 31.9535C150.036 31.7724 146.362 30.9574 146.285 31.0567C146.254 31.097 145.424 33.2834 144.44 35.9156L142.651 40.7014L140.448 40.7521L138.245 40.8027L137.3 42.6484C134.741 47.6449 131.814 50.7571 129.285 51.1699C127.463 51.4676 126.782 50.2785 126.806 46.8416C126.825 44.217 127.299 41.7138 128.415 38.3488C130.849 31.0101 134.705 25.0161 139.152 21.6585C139.919 21.0795 140.638 20.5751 140.751 20.5376C141.021 20.4474 139.936 18.0367 139.625 18.0367C139.5 18.0367 138.831 18.3103 138.14 18.6446C132.111 21.5612 125.793 30.613 123.34 39.8473C122.886 41.5552 122.848 41.6208 121.296 43.4018C119.155 45.8575 115.478 49.4174 114.265 50.2085C113.181 50.9153 112.034 51.3567 111.745 51.1781C111.141 50.8039 111.951 48.2421 113.98 44.1087C115.176 41.6703 118.957 34.734 119.748 33.5245C120.13 32.9407 120.294 33.0344 117.635 32.3207L115.688 31.7982L115.269 32.4633C114.413 33.8227 112.273 37.745 111.016 40.2598C110.302 41.6874 109.319 43.4486 108.831 44.1735C107.53 46.105 105.405 48.5789 104.123 49.656C102.447 51.063 100.888 51.6626 100.634 50.9978C100.284 50.0835 103.342 43.1864 108.065 34.2377C108.526 33.3645 108.859 32.6058 108.805 32.5516C108.675 32.4213 104.919 31.0395 104.695 31.0395C104.504 31.0395 100.951 38.2359 99.5675 41.4238C98.5827 43.6933 98.4238 43.8863 95.2809 46.6291C92.5462 49.0156 90.1457 50.7824 89.0677 51.2017C88.3735 51.4719 88.2626 51.4748 88.0177 51.2294C87.7881 50.9993 87.778 50.8286 87.9546 50.1712C88.2363 49.1227 89.6747 46.278 91.9161 42.3359C95.1667 36.6188 96.0619 34.5841 96.0619 32.913C96.0619 32.3747 95.94 32.0016 95.6564 31.6722C94.0091 29.7589 89.0713 31.8233 84.3221 36.4108C83.4437 37.2594 82.725 37.8987 82.725 37.8317C82.725 37.7645 83.2563 36.4803 83.9056 34.9779C85.2128 31.9532 85.2126 31.9501 83.7791 31.9452C81.7957 31.9387 77.4545 30.9942 74.5065 29.9278L73.0467 29.3995L72.9371 26.2917C72.7239 20.2513 71.4776 14.9138 69.1435 10.0462C67.1563 5.90211 63.9695 2.18095 61.2195 0.794154C59.939 0.148346 59.6575 0.0771953 58.1556 0.0194048C56.736 -0.0353155 56.3928 0.0112755 55.7335 0.347544ZM60.1645 3.41568C64.2277 6.13472 67.7393 12.8899 69.0272 20.4657C69.4349 22.8627 69.7193 27.4276 69.461 27.4276C69.0795 27.4276 66.0862 24.9786 64.8227 23.6326C60.53 19.0601 57.3156 11.4993 57.2612 5.84649C57.2383 3.4881 57.5412 2.68607 58.4545 2.68607C58.8782 2.68607 59.4187 2.91669 60.1645 3.41568ZM202.176 34.112C201.987 36.0731 199.483 39.9311 196.606 42.6901C195.171 44.0666 192.021 46.5584 191.705 46.5667C191.624 46.5689 191.614 46.1035 191.683 45.5323C192.211 41.1715 194.591 36.8247 197.578 34.7632C198.874 33.8689 200.512 33.2162 201.473 33.211L202.262 33.2067L202.176 34.112ZM128.047 62.3677C127.449 62.4983 126.577 62.7853 126.109 63.0054L125.259 63.4058V65.3756V67.3453L126.158 66.8886C129.189 65.3497 133 65.7228 134.428 67.6978C135.357 68.983 135.547 70.9299 134.898 72.5114C134.544 73.3739 133.403 74.5397 132.428 75.0351C131.946 75.2792 130.988 75.6068 130.298 75.763L129.044 76.0469V77.8941V79.741L130.14 80.0464C132.828 80.7953 134.759 82.3092 135.761 84.4522C136.481 85.9934 136.664 88.402 136.173 89.8825C135.337 92.4038 132.867 93.8919 129.531 93.884C128.295 93.8811 126.43 93.4941 125.615 93.0715C125.007 92.757 125.111 92.5555 124.546 95.162C124.164 96.9257 124.127 96.862 125.882 97.4818C128.14 98.2791 131.556 98.3187 134.092 97.5764C137.12 96.6902 139.522 94.3145 140.507 91.2314C140.93 89.9054 141.032 86.4841 140.694 84.8965C140.13 82.2365 138.406 79.7654 136.214 78.4707L135.183 77.8625L136.225 77.0518C138.909 74.9637 140.149 72.1157 139.684 69.113C139.264 66.3972 138.08 64.6039 135.839 63.2877C134.025 62.2227 130.577 61.8157 128.047 62.3677ZM99.6664 79.9808V97.6792H101.788H103.91L107.397 85.8953C110.621 74.9977 111.424 72.5484 111.141 74.4727C111.082 74.87 111.023 80.2337 111.009 86.392L110.984 97.5889L113.075 97.6398L115.166 97.6905V79.9866V62.2825H113.089C111.042 62.2825 111.009 62.289 110.841 62.732C110.748 62.9792 109.159 68.2821 107.311 74.5158C105.462 80.7498 103.896 85.9506 103.83 86.0732C103.764 86.1958 103.743 80.8932 103.783 74.2894L103.855 62.2825H101.761H99.6664V79.9808ZM152.053 62.403C151.987 62.4691 151.932 64.8056 151.932 67.5951C151.93 76.8782 151.341 85.8529 150.344 91.7748L150.034 93.6158L148.821 93.6692L147.607 93.7225V98.8614V104H149.585H151.564L151.613 100.885L151.662 97.7695L157.745 97.722L163.828 97.6743V100.837V104H165.9H167.973V98.853V93.7061H166.712H165.45V77.9943V62.2825H158.812C155.16 62.2825 152.119 62.3367 152.053 62.403ZM180.679 62.5083C180.636 62.6325 179.261 70.2106 177.624 79.3488C175.988 88.4869 174.576 96.3496 174.488 96.8213L174.328 97.6792H176.36H178.393L178.69 96.0087C178.854 95.09 179.21 93.0785 179.482 91.5389L179.976 88.7397L183.108 88.6902C184.83 88.663 186.307 88.7086 186.39 88.7917C186.516 88.9174 187.978 96.9393 187.978 97.5009C187.978 97.6084 188.843 97.6792 190.153 97.6792C192.14 97.6792 192.32 97.6517 192.235 97.3631C192.184 97.1894 192.059 96.5595 191.957 95.9635C191.763 94.8265 190.596 88.3142 187.703 72.2194C186.748 66.9077 185.928 62.4989 185.881 62.4221C185.833 62.3454 184.661 62.2825 183.276 62.2825C181.424 62.2825 180.737 62.3423 180.679 62.5083ZM200.775 79.9808V97.6792H202.847H204.92V90.0039V82.3286H208.705H212.49V90.0039V97.6792H214.562H216.635V79.9808V62.2825H214.564H212.493L212.446 70.2738L212.399 78.2652H208.705H205.01L204.963 70.2738L204.916 62.2825H202.846H200.775V79.9808ZM228.53 79.9808V97.6792H230.651H232.773L236.26 85.8953C238.178 79.4141 239.807 73.9995 239.881 73.8626C240.003 73.6347 239.971 84.1627 239.82 93.7512L239.758 97.6792H241.894H244.03V79.9808V62.2825H241.953C239.971 62.2825 239.869 62.3009 239.704 62.6888C239.61 62.9122 238.02 68.2151 236.171 74.4727C234.323 80.7303 232.747 85.9687 232.67 86.1133C232.592 86.258 232.574 80.9553 232.63 74.3295L232.731 62.2825H230.63H228.53V79.9808ZM262.207 62.5554C257.951 63.4049 254.902 66.1324 253.832 70.0481C253.395 71.6473 253.386 75.2812 253.815 76.9107C254.352 78.9496 255.451 80.938 256.792 82.295C257.455 82.9659 258.295 83.7558 258.658 84.0504L259.318 84.586L256.36 91.0683C254.733 94.6334 253.401 97.5795 253.401 97.6149C253.401 97.6503 254.402 97.6792 255.625 97.6792H257.849L260.757 91.1326L263.665 84.586L263.67 91.1326L263.675 97.6792H265.837H268V79.9808V62.2825L265.702 62.2995C264.438 62.3089 262.865 62.4239 262.207 62.5554ZM263.576 82.1267C263.353 82.3499 261.365 81.1092 260.384 80.1343C258.531 78.2946 257.81 76.1681 257.943 72.94C258.008 71.3583 258.103 70.8579 258.514 69.9569C259.349 68.1235 261.093 66.6679 262.908 66.2899L263.584 66.149L263.631 74.0864C263.657 78.4519 263.632 82.0702 263.576 82.1267ZM161.124 79.9808V93.7061H157.79C154.674 93.7061 154.456 93.6844 154.456 93.3743C154.456 93.1917 154.615 91.5868 154.81 89.8076C155.496 83.5328 156.077 74.0067 156.078 69.0398C156.078 67.6409 156.132 66.4422 156.198 66.3761C156.264 66.3098 157.4 66.2556 158.721 66.2556H161.124V79.9808ZM184.548 77.3622C185.15 80.938 185.684 84.0466 185.733 84.27C185.823 84.6763 185.823 84.6763 183.296 84.6763C181.397 84.6763 180.768 84.6201 180.765 84.4506C180.752 83.6973 183.223 70.2742 183.327 70.5395C183.395 70.7163 183.945 73.7864 184.548 77.3622Z" fill="#EFEFEF"/>
</svg>
