<svg width="198" height="79" viewBox="0 0 198 79" fill="none" xmlns="http://www.w3.org/2000/svg">
<path fill-rule="evenodd" clip-rule="evenodd" d="M42.3864 1.03302C41.5092 1.45981 40.7834 2.34528 40.4192 3.43312C40.0156 4.63821 39.9521 6.9947 40.278 8.68099C41.4675 14.8399 45.4161 20.1742 50.8596 22.976L52.0221 23.5744L51.9235 24.5417C51.6925 26.8095 50.7326 30.072 49.6354 32.3187C48.1261 35.4092 45.6971 38.0579 43.9647 38.5021C43.3134 38.6691 42.9778 38.5258 42.7665 37.9904C41.9424 35.9031 44.361 30.9718 48.3216 26.6632C48.8623 26.075 49.3053 25.5672 49.3059 25.535C49.3066 25.5026 48.6822 25.06 47.9184 24.5514C46.5348 23.63 46.5285 23.6275 46.1769 23.8495C45.983 23.9721 45.1628 24.3773 44.3544 24.7498C41.9475 25.8592 39.8005 26.4544 38.2909 26.4305L37.5571 26.4188L37.4127 25.8519C37.2026 25.0271 36.8392 24.4896 36.3144 24.2277C34.8812 23.5124 33.3956 24.4726 33.5929 25.9867C33.695 26.7712 34.1145 27.4071 34.7857 27.7954L35.3238 28.1066L35.1089 28.9961C34.8376 30.1198 34.0045 32.0042 33.2059 33.301C31.601 35.9072 29.5338 37.7984 27.8726 38.18C26.5971 38.473 26.0732 37.7835 26.2354 36.0258C26.4671 33.5168 28.3614 30.0548 31.6508 26.1285C32.4239 25.2057 33.0374 24.4325 33.0143 24.4102C32.6365 24.0485 30.3402 22.1688 30.2734 22.1668C30.1363 22.1626 28.1216 24.6617 27.0599 26.153C25.7823 27.9476 24.6616 29.8387 23.9596 31.3846C23.3022 32.8319 22.9124 33.2855 21.2569 34.5293C18.1748 36.8449 14.6941 38.4824 14.0455 37.9218C13.0788 37.0862 15.6049 32.2174 22.5105 21.607C26.3915 15.6439 27.1388 14.2218 27.1669 12.7464C27.2049 10.745 24.9214 10.3318 22.1194 11.833C18.9933 13.5079 15.1921 17.277 12.1067 21.7614C10.7442 23.7416 10.5485 24.2096 14.3105 16.487C18.0183 8.87575 18.0431 8.80694 17.4239 7.83872C16.6529 6.63295 15.0357 6.61285 14.1257 7.79784C13.7411 8.29849 12.4338 11.2485 9.31735 18.6485C6.29633 25.8217 0.70277 39.3986 0.699592 39.5659C0.698574 39.6195 1.44765 39.6608 2.36418 39.6578L4.03062 39.6523L4.95731 37.6779C6.97894 33.3708 9.97393 28.1467 12.4595 24.5922C15.5168 20.2201 19.0378 16.5527 22.0725 14.5795C22.5369 14.2774 22.9387 14.0531 22.9654 14.0808C22.992 14.1085 22.0947 15.4874 20.9714 17.1448C14.1839 27.1607 10.1061 34.427 9.67376 37.2766C9.49103 38.4807 9.9972 39.5625 10.9708 40.0485C11.6459 40.3855 13.0956 40.3883 14.404 40.0552C16.6246 39.4897 19.2461 38.0241 21.5597 36.0548L22.8069 34.9932L22.706 35.5898C22.6505 35.9177 22.6617 36.5898 22.7308 37.0832C23.0447 39.3259 24.3525 40.5524 26.4587 40.5794C28.7084 40.608 31.2015 39.2171 33.3136 36.7546C35.3967 34.3261 36.6064 31.9173 37.3799 28.6578C37.4535 28.3479 37.5381 28.3069 38.2267 28.2479C39.3056 28.1555 41.1938 27.6218 42.4892 27.0431C43.0956 26.7723 43.5914 26.5704 43.591 26.5947C43.5905 26.6189 43.1868 27.2073 42.6938 27.9022C41.0313 30.2453 39.8237 32.9249 39.4412 35.119C39.2146 36.4191 39.2875 38.0502 39.606 38.8031C41.0141 42.1319 45.7701 41.4016 49.1656 37.3353C50.835 35.3361 52.1223 32.9796 53.144 30.0525C53.6364 28.6417 54.3347 25.7407 54.3478 25.0509C54.3519 24.835 54.3864 24.6285 54.4244 24.5916C54.4625 24.5549 54.952 24.6671 55.5123 24.8407C56.0725 25.0143 57.1396 25.2749 57.8835 25.4193C58.6274 25.5639 59.2352 25.7215 59.2343 25.7695C59.2334 25.8174 57.8242 29.1102 56.1026 33.0867C54.3812 37.0631 52.9409 40.3906 52.9019 40.4811C52.8476 40.6077 53.2266 40.6532 54.5466 40.6782L56.262 40.7108L58.0985 36.695L59.9352 32.6792L61.4335 31.2528C64.3497 28.4764 66.9764 26.7528 67.3436 27.3744C67.4805 27.6061 66.9187 28.7502 65.4671 31.1963C62.4117 36.3447 61.7476 37.7762 61.7021 39.3115C61.6762 40.187 61.7042 40.2967 62.0484 40.6714C63.6204 42.3828 67.904 40.6319 71.3066 36.887C71.9087 36.2246 72.1669 36.0111 72.0978 36.2333C71.5133 38.1118 71.2769 39.2129 71.3453 39.738C71.4903 40.8522 72.2529 41.4473 73.5628 41.4687C75.1033 41.494 76.6244 40.6599 78.4569 38.7852C79.0745 38.1533 79.5337 37.755 79.4775 37.8999C79.2377 38.5175 79.1923 39.8938 79.398 40.3117C79.8842 41.2997 81.0866 41.8247 82.3644 41.6068C83.2918 41.4487 84.6974 40.7413 85.867 39.8438C87.0189 38.9599 89.0998 36.8736 89.9349 35.7654C90.2528 35.3434 90.5428 34.9969 90.5793 34.9953C90.6157 34.9938 90.6128 35.6295 90.5729 36.408C90.3684 40.3887 91.885 42.2544 94.984 41.8346C96.4171 41.6404 97.641 40.9613 99.1126 39.5434C100.545 38.1626 101.551 36.7737 102.657 34.6473L103.387 33.244L104.217 33.2597C104.674 33.2684 105.047 33.3259 105.046 33.3876C105.044 33.4492 104.329 35.3022 103.457 37.5053L101.87 41.5108L103.535 41.5797C104.656 41.6262 105.23 41.6009 105.293 41.502C105.345 41.4215 106.1 39.5525 106.97 37.3488L108.552 33.3421L110.441 33.3779C111.479 33.3977 112.329 33.4462 112.328 33.4859C112.327 33.5254 111.926 34.5183 111.437 35.6922C110.272 38.4904 109.938 39.523 109.923 40.3764C109.909 41.1704 110.136 41.6353 110.679 41.9221C112.478 42.8732 115.508 41.5763 118.222 38.6938C119.104 37.7571 119.131 37.7398 119.027 38.1866C118.967 38.441 118.911 39.0969 118.903 39.6443C118.887 40.7637 119.188 41.5651 119.775 41.9669C120.667 42.5773 122.46 42.5293 123.912 41.8562C125.515 41.1135 126.858 39.1997 127.444 36.8201C127.855 35.1558 127.826 32.7484 127.381 31.5169C127.303 31.301 129.374 29.7814 130.889 28.9431C131.963 28.3485 133.613 27.6524 133.709 27.7527C133.737 27.7822 133.32 28.6884 132.781 29.7664C130.613 34.1065 129.182 37.5789 128.768 39.507C128.513 40.6929 128.873 41.805 129.652 42.2421C130.158 42.5265 131.164 42.6433 132.237 42.5422C134.085 42.3683 135.554 41.9561 138.641 40.7444L139.206 40.5229L139.723 41.0781C141.104 42.5596 143.648 43.1656 146.858 42.7771C147.702 42.675 148.658 42.5186 148.983 42.4295L149.575 42.2677L149.543 41.5453C149.526 41.1481 149.495 40.8048 149.474 40.7825C149.453 40.7603 149.036 40.804 148.547 40.8798C148.042 40.9581 146.933 40.9803 145.981 40.9314C144.508 40.8557 144.211 40.8001 143.539 40.4738C142.832 40.1306 142.014 39.415 142.019 39.1437C142.02 39.0802 142.551 38.6856 143.199 38.2667C148.296 34.9712 151.443 31.0725 151.502 27.9814C151.514 27.3496 151.45 27.0593 151.225 26.7094C150.587 25.7215 149.526 25.2868 147.968 25.3752C143.736 25.6152 140.228 28.8683 138.786 33.8901C138.565 34.6576 138.478 35.3763 138.43 36.8268L138.366 38.7474L136.843 39.4303C135.019 40.2489 133.154 40.8543 132.402 40.8726L131.854 40.8858L131.881 40.0899C131.913 39.101 132.494 37.6868 134.942 32.6291C137.299 27.7598 137.451 27.3089 137.026 26.4457C136.577 25.5316 135.195 25.3152 133.513 25.8954C131.744 26.5057 128.607 28.4672 126.183 30.4794C124.857 31.5796 124.766 31.7312 124.933 32.5415C125.006 32.8989 125.053 33.7882 125.036 34.5179C124.983 36.7893 124.165 39.0795 123.061 40.0408C122.511 40.5208 121.844 40.661 121.653 40.3371C121.488 40.0588 121.605 38.9233 121.901 37.916C122.598 35.5475 125.151 30.1707 126.863 27.4635C127.247 26.8569 127.562 26.3176 127.563 26.2652C127.565 26.1318 124.898 25.1649 124.758 25.2483C124.574 25.3571 121.915 30.5675 121.043 32.5248C120.124 34.5903 119.25 35.7407 117.124 37.6859C115.355 39.3049 113.697 40.1861 113.491 39.6168C113.236 38.9092 114.997 34.6746 118.055 28.6447C118.834 27.1083 119.456 25.8508 119.436 25.8504C119.416 25.8501 118.727 25.6871 117.904 25.4883C117.082 25.2895 116.363 25.1717 116.306 25.2263C116.212 25.3171 113.322 31.3314 113.114 31.8691C113.034 32.0743 112.812 32.0957 111.101 32.0632C110.043 32.0431 109.177 31.9819 109.177 31.9271C109.178 31.8723 109.723 30.445 110.389 28.7553C111.319 26.3985 111.561 25.6576 111.432 25.5738C111.219 25.4366 108.532 24.7865 108.474 24.8584C108.451 24.8876 107.81 26.4824 107.051 28.4025L105.67 31.8936L104.051 31.9002L102.432 31.9066L101.712 33.2494C99.7628 36.8847 97.5691 39.1303 95.7059 39.3984C94.3629 39.5916 93.8793 38.7085 93.9453 36.1838C93.9955 34.2558 94.3789 32.4233 95.2458 29.9666C97.1361 24.6088 100.052 20.2589 103.366 17.8541C103.937 17.4394 104.472 17.0789 104.555 17.0528C104.755 16.9904 103.992 15.2041 103.764 15.1998C103.671 15.198 103.177 15.3897 102.664 15.6256C98.1949 17.6843 93.4271 24.2465 91.4965 30.9967C91.1394 32.2452 91.1107 32.2928 89.9456 33.5797C88.3388 35.354 85.5879 37.9182 84.6858 38.4824C83.8795 38.9866 83.0308 39.2948 82.8214 39.1596C82.3828 38.8762 83.0132 37.0054 84.5613 33.9969C85.4744 32.2221 88.3481 27.1788 88.9461 26.3013C89.2347 25.8776 89.3544 25.9488 87.411 25.3873L85.9883 24.9763L85.6712 25.4591C85.0232 26.4459 83.3966 29.2978 82.438 31.1278C81.8938 32.1667 81.1468 33.4469 80.7782 33.9727C79.7956 35.3736 78.2006 37.1616 77.2434 37.935C75.9926 38.9453 74.8394 39.3641 74.6617 38.8721C74.4172 38.1955 76.7602 33.1709 80.3547 26.6622C80.7056 26.0271 80.9607 25.4744 80.9217 25.4338C80.8279 25.3362 78.088 24.2686 77.9233 24.2655C77.7832 24.2628 75.0728 29.5004 74.0121 31.8232C73.2571 33.4769 73.1376 33.6165 70.7907 35.5877C68.7485 37.303 66.9605 38.5675 66.1629 38.8605C65.6491 39.0493 65.5677 39.0499 65.3912 38.8662C65.2257 38.694 65.2207 38.5684 65.3596 38.0879C65.5812 37.3215 66.6775 35.2516 68.3789 32.3866C70.8465 28.2317 71.5324 26.7492 71.5558 25.5215C71.5633 25.126 71.479 24.8501 71.2752 24.6042C70.0919 23.1755 66.436 24.6233 62.8833 27.9275C62.2262 28.5387 61.6893 28.9984 61.6902 28.9491C61.6912 28.8998 62.0994 27.9637 62.5974 26.869C63.5998 24.6649 63.5997 24.6626 62.5468 24.6391C61.0899 24.6066 57.9142 23.8521 55.7636 23.0275L54.6986 22.619L54.6615 20.3341C54.5891 15.8933 53.7482 11.9545 52.1015 8.34573C50.6996 5.27333 48.4106 2.49494 46.41 1.43769C45.4783 0.945353 45.2725 0.889151 44.1701 0.825736C43.1281 0.765724 42.8753 0.795166 42.3864 1.03302ZM45.5984 3.349C48.5452 5.40336 51.0304 10.4154 51.8707 15.9992C52.1367 17.766 52.2819 21.1238 52.0922 21.1202C51.8119 21.1149 49.6474 19.2738 48.738 18.2673C45.6485 14.848 43.3929 9.24825 43.4318 5.09439C43.4479 3.36137 43.6816 2.77635 44.3524 2.7891C44.6637 2.79501 45.0575 2.97199 45.5984 3.349ZM149.487 27.883C149.321 29.3212 147.427 32.1208 145.276 34.1076C144.202 35.0989 141.854 36.8857 141.622 36.8874C141.562 36.8879 141.561 36.5458 141.62 36.1271C142.069 32.9306 143.877 29.7702 146.1 28.2973C147.065 27.6584 148.277 27.2017 148.984 27.2113L149.563 27.2191L149.487 27.883ZM94.6396 47.6081C94.1985 47.6957 93.554 47.8943 93.2075 48.0495L92.5774 48.3318L92.5499 49.779L92.5224 51.2262L93.1895 50.9032C95.437 49.8149 98.2316 50.1422 99.2528 51.6131C99.9174 52.5703 100.03 54.0034 99.5312 55.1562C99.2591 55.785 98.4045 56.6255 97.6809 56.9758C97.3242 57.1485 96.6158 57.3758 96.1067 57.481L95.1812 57.672L95.1554 59.0291L95.1296 60.3861L95.9306 60.6257C97.8947 61.2135 99.2924 62.3527 99.998 63.9411C100.506 65.0834 100.606 66.8556 100.225 67.9365C99.576 69.7772 97.7405 70.836 95.2898 70.7836C94.3823 70.7643 93.0179 70.4539 92.4246 70.1321C91.9831 69.8926 92.0616 69.7459 91.6105 71.6531C91.3053 72.9435 91.2792 72.8962 92.5596 73.376C94.2068 73.9933 96.716 74.0701 98.5889 73.5601C100.826 72.9513 102.623 71.2394 103.39 68.988C103.719 68.0197 103.841 65.5074 103.616 64.3363C103.238 62.3742 102.007 60.5346 100.414 59.5528L99.6658 59.0916L100.442 58.5105C102.443 57.0139 103.394 54.9388 103.094 52.7262C102.823 50.725 101.979 49.391 100.351 48.3927C99.0335 47.585 96.5064 47.2378 94.6396 47.6081ZM73.5467 60.1524L73.2997 73.1553L74.8583 73.1849L76.4169 73.2145L79.1425 64.6056C81.6632 56.6441 82.287 54.8559 82.0523 56.2656C82.0039 56.5567 81.8855 60.4966 81.7892 65.0209L81.6141 73.2468L83.1495 73.3134L84.6851 73.3799L84.9321 60.3729L85.1792 47.3657L83.6534 47.3367C82.1496 47.3082 82.1258 47.3125 81.9961 47.6356C81.9238 47.816 80.6827 51.6897 79.2381 56.2439C77.7935 60.7982 76.5706 64.5973 76.5203 64.6865C76.4701 64.7757 76.5283 60.8795 76.6498 56.0283L76.8706 47.2079L75.3322 47.1787L73.7937 47.1494L73.5467 60.1524ZM112.273 47.9689C112.224 48.0166 112.151 49.7324 112.112 51.7819C111.981 58.6021 111.423 65.1876 110.608 69.5245L110.355 70.8727L109.463 70.895L108.571 70.9173L108.499 74.6927L108.427 78.4681L109.88 78.4957L111.334 78.5233L111.413 76.2352L111.493 73.9471L115.962 73.9971L120.431 74.047L120.386 76.3708L120.342 78.6944L121.865 78.7233L123.387 78.7523L123.459 74.9708L123.531 71.1894L122.604 71.1718L121.678 71.1541L121.897 59.6108L122.116 48.0674L117.24 47.9747C114.558 47.9238 112.323 47.9212 112.273 47.9689ZM133.3 48.4457C133.266 48.5364 132.151 54.0848 130.821 60.7758C129.491 67.4667 128.344 73.2237 128.273 73.569L128.143 74.197L129.637 74.2254L131.13 74.2538L131.371 73.0306C131.504 72.3579 131.794 70.8851 132.015 69.7578L132.417 67.7081L134.718 67.7154C135.984 67.7194 137.068 67.7736 137.128 67.8358C137.219 67.9299 138.181 73.8439 138.173 74.2566C138.172 74.3355 138.806 74.3996 139.768 74.4179C141.228 74.4456 141.36 74.4279 141.302 74.2147C141.267 74.0864 141.184 73.6218 141.118 73.1826C140.991 72.3445 140.224 67.5437 138.324 55.6785C137.696 51.7627 137.155 48.5121 137.122 48.455C137.088 48.398 136.228 48.3354 135.211 48.3161C133.85 48.2903 133.345 48.3246 133.3 48.4457ZM147.818 61.5632L147.571 74.5661L149.093 74.595L150.616 74.6239L150.723 68.9849L150.83 63.3459L153.61 63.3987L156.39 63.4515L156.283 69.0905L156.176 74.7295L157.698 74.7585L159.221 74.7874L159.468 61.7845L159.715 48.7816L158.194 48.7527L156.673 48.7238L156.527 54.5943L156.381 60.4649L153.667 60.4133L150.953 60.3618L151.03 54.4899L151.107 48.6181L149.586 48.5892L148.065 48.5603L147.818 61.5632ZM168.206 61.9505L167.959 74.9534L169.517 74.983L171.075 75.0126L173.801 66.4037C175.3 61.6687 176.573 57.7134 176.629 57.6138C176.722 57.4481 176.552 65.1825 176.307 72.2251L176.207 75.11L177.775 75.1398L179.344 75.1696L179.591 62.1667L179.838 49.1638L178.313 49.1349C176.857 49.1072 176.782 49.1193 176.655 49.402C176.583 49.5648 175.341 53.4386 173.896 58.0103C172.45 62.5819 171.22 66.4085 171.161 66.5137C171.102 66.6189 171.163 62.7228 171.296 57.8556L171.538 49.0062L169.995 48.9769L168.453 48.9476L168.206 61.9505ZM193.187 49.6179C190.049 50.1827 187.771 52.1441 186.93 55.006C186.587 56.1748 186.53 58.8445 186.822 60.0477C187.188 61.5531 187.968 63.0293 188.934 64.045C189.411 64.5472 190.017 65.1392 190.28 65.3607L190.758 65.7635L188.494 70.4847C187.249 73.0813 186.23 75.2272 186.229 75.2532C186.229 75.2792 186.963 75.3144 187.862 75.3314L189.496 75.3625L191.723 70.5933L193.95 65.8241L193.863 70.6339L193.775 75.4438L195.363 75.4739L196.952 75.5041L197.199 62.5012L197.446 49.4983L195.758 49.4787C194.829 49.468 193.672 49.5305 193.187 49.6179ZM193.919 64.016C193.752 64.1769 192.31 63.2376 191.602 62.5077C190.267 61.1302 189.767 59.5578 189.909 57.188C189.979 56.0268 190.057 55.6605 190.371 55.0043C191.01 53.6689 192.311 52.6239 193.65 52.3715L194.149 52.2774L194.072 58.1096C194.03 61.3173 193.961 63.9753 193.919 64.016ZM118.692 61.0099L118.5 71.0938L116.051 71.0473C113.762 71.0038 113.602 70.9848 113.606 70.757C113.609 70.6229 113.748 69.4459 113.916 68.1415C114.507 63.541 115.068 56.5503 115.137 52.9012C115.157 51.8734 115.213 50.9934 115.263 50.9458C115.312 50.898 116.147 50.874 117.118 50.8925L118.883 50.926L118.692 61.0099ZM135.934 59.4128C136.327 62.0484 136.675 64.3397 136.709 64.5045C136.769 64.8043 136.769 64.8043 134.913 64.769C133.518 64.7425 133.057 64.6925 133.057 64.5679C133.058 64.0143 135.06 54.1868 135.133 54.3832C135.181 54.514 135.541 56.7773 135.934 59.4128Z" fill="#D07F5C"/>
</svg>
